<svg width="18" height="18" viewBox="0 0 18 18" fill="none" xmlns="http://www.w3.org/2000/svg">
<mask id="mask0_2507_6637" style="mask-type:alpha" maskUnits="userSpaceOnUse" x="1" y="1" width="16" height="16">
<rect x="1.7998" y="1.80005" width="14.4" height="14.4" fill="#D9D9D9"/>
</mask>
<g mask="url(#mask0_2507_6637)">
<path d="M5.3998 9.60015C5.2298 9.60015 5.0873 9.54265 4.9723 9.42765C4.8573 9.31265 4.7998 9.17015 4.7998 9.00015C4.7998 8.83015 4.8573 8.68765 4.9723 8.57265C5.0873 8.45765 5.2298 8.40015 5.3998 8.40015H12.5998C12.7698 8.40015 12.9123 8.45765 13.0273 8.57265C13.1423 8.68765 13.1998 8.83015 13.1998 9.00015C13.1998 9.17015 13.1423 9.31265 13.0273 9.42765C12.9123 9.54265 12.7698 9.60015 12.5998 9.60015H5.3998Z" fill="#202020"/>
</g>
<rect x="0.25" y="0.25" width="17.5" height="17.5" rx="1.75" stroke="#202020" stroke-width="0.5"/>
</svg>
