<svg width="18" height="18" viewBox="0 0 18 18" fill="none" xmlns="http://www.w3.org/2000/svg">
<path d="M17 9C16.7333 9 16.4957 8.904 16.287 8.712C16.0783 8.52 15.958 8.28267 15.926 8C15.7093 6.45 15.055 5.129 13.963 4.037C12.871 2.945 11.55 2.291 10 2.075C9.71667 2.04167 9.479 1.925 9.287 1.725C9.095 1.525 8.99933 1.28333 9 1C9 0.716667 9.1 0.479 9.3 0.287C9.5 0.0949999 9.73333 0.016 10 0.05C12.1 0.283333 13.8917 1.14167 15.375 2.625C16.8583 4.10833 17.7167 5.9 17.95 8C17.9833 8.26667 17.904 8.5 17.712 8.7C17.52 8.9 17.2827 9 17 9ZM12.825 9C12.6083 9 12.4167 8.925 12.25 8.775C12.0833 8.625 11.9583 8.425 11.875 8.175C11.7417 7.69167 11.4873 7.26233 11.112 6.887C10.7367 6.51167 10.3077 6.25767 9.825 6.125C9.575 6.04167 9.375 5.91667 9.225 5.75C9.075 5.58333 9 5.38333 9 5.15C9 4.81667 9.11667 4.54567 9.35 4.337C9.58333 4.12833 9.84167 4.05767 10.125 4.125C11.0583 4.34167 11.8627 4.78767 12.538 5.463C13.2133 6.13833 13.659 6.94233 13.875 7.875C13.9417 8.15833 13.8667 8.41667 13.65 8.65C13.4333 8.88333 13.1583 9 12.825 9ZM16.95 18C14.8 18 12.704 17.5207 10.662 16.562C8.62 15.6033 6.81167 14.3367 5.237 12.762C3.66233 11.1873 2.39567 9.379 1.437 7.337C0.478334 5.295 -0.000665972 3.19933 6.94927e-07 1.05C6.94927e-07 0.75 0.100001 0.5 0.300001 0.3C0.500001 0.0999999 0.750001 0 1.05 0H5.1C5.33333 0 5.54167 0.0749999 5.725 0.225C5.90833 0.375 6.01667 0.566667 6.05 0.8L6.7 4.3C6.73333 4.53333 6.729 4.746 6.687 4.938C6.645 5.13 6.54933 5.30067 6.4 5.45L4 7.9C4.7 9.1 5.575 10.225 6.625 11.275C7.675 12.325 8.83333 13.2333 10.1 14L12.45 11.65C12.6 11.5 12.796 11.3877 13.038 11.313C13.28 11.2383 13.5173 11.2173 13.75 11.25L17.2 11.95C17.4333 12 17.625 12.1127 17.775 12.288C17.925 12.4633 18 12.6673 18 12.9V16.95C18 17.25 17.9 17.5 17.7 17.7C17.5 17.9 17.25 18 16.95 18Z" fill="#0C0C0C" fill-opacity="0.4"/>
</svg>
