<svg width="18" height="18" viewBox="0 0 18 18" fill="none" xmlns="http://www.w3.org/2000/svg">
<mask id="mask0_2524_7317" style="mask-type:alpha" maskUnits="userSpaceOnUse" x="1" y="1" width="16" height="16">
<rect x="1.7998" y="1.80005" width="14.4" height="14.4" fill="#D9D9D9"/>
</mask>
<g mask="url(#mask0_2524_7317)">
<path d="M8.3998 9.60005H5.3998C5.2298 9.60005 5.0873 9.54255 4.9723 9.42755C4.8573 9.31255 4.7998 9.17005 4.7998 9.00005C4.7998 8.83005 4.8573 8.68755 4.9723 8.57255C5.0873 8.45755 5.2298 8.40005 5.3998 8.40005H8.3998V5.40005C8.3998 5.23005 8.4573 5.08755 8.5723 4.97255C8.6873 4.85755 8.8298 4.80005 8.9998 4.80005C9.1698 4.80005 9.3123 4.85755 9.4273 4.97255C9.5423 5.08755 9.5998 5.23005 9.5998 5.40005V8.40005H12.5998C12.7698 8.40005 12.9123 8.45755 13.0273 8.57255C13.1423 8.68755 13.1998 8.83005 13.1998 9.00005C13.1998 9.17005 13.1423 9.31255 13.0273 9.42755C12.9123 9.54255 12.7698 9.60005 12.5998 9.60005H9.5998V12.6C9.5998 12.77 9.5423 12.9125 9.4273 13.0275C9.3123 13.1425 9.1698 13.2 8.9998 13.2C8.8298 13.2 8.6873 13.1425 8.5723 13.0275C8.4573 12.9125 8.3998 12.77 8.3998 12.6V9.60005Z" fill="#121212"/>
</g>
<rect x="0.25" y="0.25" width="17.5" height="17.5" rx="1.75" stroke="#121212" stroke-width="0.5"/>
</svg>
